<?xml version="1.0" encoding="utf-8"?>
<!-- Generator: Adobe Illustrator 27.0.0, SVG Export Plug-In . SVG Version: 6.00 Build 0)  -->
<svg version="1.1" id="图层_1" xmlns="http://www.w3.org/2000/svg" xmlns:xlink="http://www.w3.org/1999/xlink" x="0px" y="0px"
	 viewBox="0 0 200 200" style="enable-background:new 0 0 200 200;" xml:space="preserve">
<g>
	<g>
		<path d="M101,188.2c-11.5,0-23-0.1-34.5,0c-4.6,0.1-7.9-1.5-10.7-5.1c-13.6-17.2-27.3-34.3-41.1-51.2c-3.8-4.6-4.3-9.3-3-14.9
			c4.9-20.9,9.7-41.8,14.4-62.8c1.1-4.7,3.4-8.2,7.8-10.3C54,34.3,74.1,24.7,94.3,15.1c4.3-2,8.8-2.2,13.1-0.2
			c19.6,9.2,39,18.7,58.5,28c5.8,2.8,9.1,7.1,10.6,13.6c4.5,20.5,9.3,40.9,14.1,61.3c1.3,5.5,0.2,10.1-3.3,14.4
			c-13.9,17.2-27.8,34.4-41.7,51.7c-2.5,3.1-5.7,4.3-9.6,4.3C124.3,188.1,112.6,188.2,101,188.2z M160.8,101
			c1.6-32.7-28.2-58.9-56.8-60.1c-36-1.6-62,29.2-63.2,57.1c-1.6,36.2,29.7,62.3,58.1,63.2C133.1,162.3,162.8,132,160.8,101z"/>
		<path d="M130.1,81.2c-1.4,5.9-5,11.9-7.6,18.3c-1.1,2.8-2.8,5.4-3.5,8.2c-2,7.8-9,9.6-15,12.5c-6.9,3.3-13.9,6.3-20.8,9.5
			c-2.4,1.1-4.7,2.5-7.3,0c-2.5-2.5-2.6-5.2-1.4-8.2c3-7.2,6.1-14.3,9.2-21.5c0.8-1.8,1.2-3.8,2.1-5.6c1.7-3.4,3.6-6.4,7.6-8
			c8.9-3.6,17.6-7.6,26.4-11.4C126.4,72.1,130.4,74.1,130.1,81.2z"/>
	</g>
</g>
</svg>
