<?xml version="1.0" encoding="utf-8"?>
<!-- Generator: Adobe Illustrator 27.0.0, SVG Export Plug-In . SVG Version: 6.00 Build 0)  -->
<svg version="1.1" id="图层_1" xmlns="http://www.w3.org/2000/svg" xmlns:xlink="http://www.w3.org/1999/xlink" x="0px" y="0px"
	 viewBox="0 0 200 200" style="enable-background:new 0 0 200 200;" xml:space="preserve">
<g>
	<g>
		<path d="M101,188.2c-11.7,0-23.3-0.1-35,0c-3.7,0-6.9-1-9.3-3.9c-14.1-17.6-28.1-35.3-42.4-52.8c-3.7-4.5-4-9.1-2.7-14.5
			c4.9-20.9,9.7-41.8,14.3-62.8c1.1-4.7,3.4-8.2,7.8-10.3C54,34.4,74.1,24.7,94.2,15.1c4.3-2,8.9-2.2,13.1-0.2
			c19.6,9.2,39,18.7,58.5,28c5.8,2.8,9.2,7.1,10.6,13.5c4.5,20.5,9.3,40.9,14.1,61.3c1.3,5.5,0.2,10.1-3.3,14.4
			c-13.9,17.2-27.8,34.4-41.7,51.7c-2.5,3.1-5.7,4.3-9.6,4.3C124.3,188.1,112.7,188.2,101,188.2z M157.8,101.9
			c0.4-20-7.9-34.2-21.5-45.6c-9.5-7.9-20.8-12.4-33.5-12.2c-2.3,0-4.5,0.3-4.4,3.4c0,2.8,2,2.9,4.1,3.2c4.3,0.5,8.7,0.8,12.7,2.2
			c14.3,5,25.4,13.6,31.7,28.1c7.7,17.6,4.3,39.8-8.9,53.9c-9.6,10.2-21.4,15.3-35.2,16.3c-1.7,0.1-3.5-0.1-4.2,1.9
			c-0.4,1.1-0.4,2.3,0.3,3.3c1.2,1.6,3,1.3,4.6,1.3C130.8,158.3,158.9,131.3,157.8,101.9z M76.4,126.8c9.2,0,18.3,0,27.5,0
			c1.4,0,3.4-0.8,4,0.9c0.6,1.6-1.4,2.4-2.3,3.5c-1.5,1.6-3.1,3-4.6,4.6c-1.6,1.7-4.1,3.5-1.8,5.8c2.1,2.1,4.9,1.5,7.1-0.7
			c4.4-4.3,8.8-8.6,13-13.1c1.5-1.6,3.6-3.8,1.4-6.1c-5.4-5.7-11-11.2-16.6-16.6c-1.6-1.5-3.4-1-4.8,0.6c-1.5,1.7-0.6,3,0.7,4.3
			c1.8,1.8,3.6,3.5,5.3,5.3c1.1,1.2,3.3,2.1,2.6,3.8c-0.7,1.8-3,0.9-4.5,0.9c-18,0.1-36,0-53.9,0.1c-2.4,0-5-0.1-5,3.3
			c0,3.5,2.7,3.2,5.1,3.2C58.4,126.8,67.4,126.8,76.4,126.8z M76.5,75.2C76.5,75.2,76.5,75.2,76.5,75.2c-9.1,0-18.3,0-27.4,0
			c-2.2,0-4.6,0-4.7,3.1c-0.1,3.4,2.4,3.4,4.8,3.5c1.3,0,2.7,0,4,0c16.8,0,33.6,0,50.4,0c1.4,0,3.5-0.7,4.2,0.7
			c0.9,1.8-1.4,2.7-2.4,3.9c-1.5,1.7-3.3,3.3-4.8,5c-1.5,1.7-1.9,3.7-0.2,5.4c1.7,1.7,3.4,0.6,4.8-0.8c5.1-5,10.1-10.1,15.2-15.2
			c1.8-1.8,2.1-3.8,0.2-5.7c-4.8-4.9-9.6-9.7-14.5-14.5c-1.7-1.7-4-2.3-5.7-0.4c-1.7,1.9-0.9,4,0.7,5.8c1.9,1.9,3.8,3.8,5.6,5.7
			c0.7,0.7,1.8,1.4,1.4,2.4c-0.4,1.5-1.9,1-3,1C95.5,75.2,86,75.2,76.5,75.2z"/>
	</g>
</g>
</svg>
