<?xml version="1.0" encoding="utf-8"?>
<!-- Generator: Adobe Illustrator 27.0.0, SVG Export Plug-In . SVG Version: 6.00 Build 0)  -->
<svg version="1.1" id="图层_1" xmlns="http://www.w3.org/2000/svg" xmlns:xlink="http://www.w3.org/1999/xlink" x="0px" y="0px"
	 viewBox="0 0 200 200" style="enable-background:new 0 0 200 200;" xml:space="preserve">
<g>
	<g>
		<path d="M100.9,188.2c-11.5,0-23-0.1-34.5,0c-4.6,0.1-7.8-1.6-10.7-5.2c-13.7-17.3-27.5-34.5-41.4-51.6c-3.4-4.2-4-8.5-2.8-13.5
			c4.9-21.4,9.8-42.8,14.7-64.2c1-4.5,3.6-7.7,7.8-9.7c20.1-9.6,40.2-19.2,60.4-28.8c4.3-2,8.8-2.1,13.1-0.1
			c19.4,9.2,38.7,18.6,58.1,27.8c6,2.8,9.5,7.2,10.9,13.8c4.5,20.5,9.3,40.9,14.1,61.3c1.3,5.5,0.1,10.1-3.4,14.4
			c-13.8,17.1-27.6,34.2-41.4,51.3c-2.6,3.3-5.8,4.6-10,4.6C124.2,188.1,112.5,188.2,100.9,188.2z M100.8,152.8
			c13.2,0,26.3,0.1,39.5,0c11.4-0.1,20.5-9.3,20.5-20.7c0-20-0.7-40,0.3-60c0.7-13.4-10.4-23.2-23-23.1c-24.6,0.2-49.3,0-74,0.1
			c-15.2,0-24.8,11-22.7,26.1c0.3,1.9,0.8,3.2,2.9,3.4c1.9,0.2,3.4-0.6,4.1-2.3c0.5-1.2,0.5-2.6,0.5-3.9c0.4-9.9,5.2-14.6,15.1-14.6
			c10.8-0.1,21.7-0.1,32.5,0.1c8.1,0.1,16.3,0.1,24.4,0.5c6.5,0.3,13.2-0.5,19.9-0.5c6.4,0.1,12.5,5.7,12.5,12
			c0.2,20.5,0.2,41,0,61.5c-0.1,7.1-5.4,12.8-11.5,12.9c-26.8,0.1-53.6,0.1-80.5,0c-4.1,0-7.1-1.8-9.6-5.2
			c-2.6-3.5-2.9-7.3-2.9-11.3c0-2.5-1.4-4.1-4-4.3c-2-0.1-3.1,0.8-3.4,2.8c-2.5,16.5,8.9,26.9,21.5,26.7
			C75.5,152.7,88.1,152.8,100.8,152.8z M72.5,104.7C72.5,104.7,72.5,104.7,72.5,104.7c8.8,0,17.6,0,26.5,0c1.3,0,2.9-0.4,3.5,1.1
			c0.6,1.5-0.9,2.4-1.8,3.3c-3.4,3.5-6.8,6.8-10.2,10.3c-1.6,1.6-3.3,3.4-1.2,5.5c2.1,2.1,4.6,2.5,7,0.1
			c6.6-6.6,13.2-13.2,19.8-19.8c2.4-2.5,2.4-5-0.1-7.4C109,90.8,102,83.9,95.1,76.9c-2-2-3.9-1.7-5.7-0.1c-2,1.8-1.1,3.6,0.5,5.2
			c3.2,3.2,6.4,6.3,9.5,9.6c1.3,1.4,3.9,2.4,2.9,4.7c-0.8,1.8-3.3,1-5.1,1c-16.8,0.1-33.6,0-50.4,0c-3,0-5.4,0.8-5.4,4.4
			c0,3.5,2.8,3.1,5.1,3.1C55.2,104.8,63.8,104.7,72.5,104.7z"/>
	</g>
</g>
</svg>
