<?xml version="1.0" encoding="utf-8"?>
<!-- Generator: Adobe Illustrator 27.0.0, SVG Export Plug-In . SVG Version: 6.00 Build 0)  -->
<svg version="1.1" id="图层_1" xmlns="http://www.w3.org/2000/svg" xmlns:xlink="http://www.w3.org/1999/xlink" x="0px" y="0px"
	 viewBox="0 0 200 200" style="enable-background:new 0 0 200 200;" xml:space="preserve">
<g>
	<g>
		<path d="M101,188.2c-11.7,0-23.3-0.1-35,0c-3.7,0-6.9-1-9.3-4c-14.1-17.6-28.1-35.3-42.4-52.8c-3.7-4.5-4-9.1-2.7-14.5
			c4.9-20.9,9.6-41.8,14.3-62.8c1.1-4.7,3.4-8.2,7.8-10.3C54,34.4,74.1,24.7,94.2,15.1c4.3-2,8.8-2.2,13.1-0.2
			c19.6,9.2,39,18.7,58.5,28c5.8,2.8,9.2,7.1,10.6,13.5c4.5,20.5,9.3,40.9,14.1,61.3c1.3,5.5,0.2,10.1-3.3,14.4
			c-13.9,17.2-27.8,34.4-41.7,51.7c-2.5,3.1-5.7,4.3-9.6,4.3C124.3,188.1,112.6,188.2,101,188.2z M40.2,101
			c0,12.8,0.1,25.7-0.1,38.5c0,3.8,1,5.7,5.1,5.3c1.2-0.1,2.3-0.1,3.5,0c4,0.5,5.3-1.3,5.2-5.2c-0.2-6.8-0.1-13.7-0.1-20.5
			c0-8.2,0-7.9,8.1-8.4c8.1-0.5,16-1.7,22.8-7.2c7.9-6.4,9.5-14.7,9-24.1c-0.4-9.7-5.9-17.5-15.1-20.7C68,55,57.1,56.2,46.1,56.9
			c-5.3,0.3-6.1,2.6-6,7.1C40.4,76.3,40.2,88.7,40.2,101z M135.3,130.2c-0.3,0-0.7,0-1,0c-0.3-1.6-0.5-3.2-0.9-4.8
			c-5.6-20.5-11.2-41-16.8-61.4c-2.1-7.9-2.1-7.9-10.4-7.8c-5.9,0-6.1,0.3-4.4,5.9c7.5,24.6,15,49.2,22.6,73.8
			c2.8,9.1,2.9,8.9,12.6,8.9c3.3,0,5.2-1,6.1-4.4c1.9-6.7,4.1-13.3,6.3-19.9c6.4-19.6,12.9-39.1,19.2-58.7c0.5-1.6,2-3.4,0-5
			c-3.2-2.5-12.2,0-13.4,3.8c-4.4,14.6-8.8,29.2-13,43.9C139.8,113,137.6,121.6,135.3,130.2z"/>
		<path d="M53.8,83.6c0-4.2,0-8.3,0-12.5c0-2.1,0.4-4,2.6-5c7.4-3.5,21.2,2.6,23.9,10.4c4.2,12.5-3.6,23.6-16.6,23.6
			c-10.7,0-9.7,1-9.8-9.5C53.8,88.3,53.8,86,53.8,83.6C53.8,83.6,53.8,83.6,53.8,83.6z"/>
	</g>
</g>
</svg>
