<?xml version="1.0" encoding="utf-8"?>
<!-- Generator: Adobe Illustrator 27.0.0, SVG Export Plug-In . SVG Version: 6.00 Build 0)  -->
<svg version="1.1" id="图层_1" xmlns="http://www.w3.org/2000/svg" xmlns:xlink="http://www.w3.org/1999/xlink" x="0px" y="0px"
	 viewBox="0 0 200 200" style="enable-background:new 0 0 200 200;" xml:space="preserve">
<g>
	<g>
		<path d="M100.9,188.2c-11.5,0-23-0.1-34.5,0c-4.6,0.1-7.8-1.6-10.7-5.2c-13.7-17.3-27.5-34.5-41.4-51.6c-3.5-4.3-4-8.8-2.8-14
			c4.9-21.1,9.7-42.1,14.5-63.2c1.1-4.7,3.5-8.2,7.9-10.3C54,34.3,74.1,24.7,94.3,15.1c4.3-2,8.8-2.1,13.1-0.2
			c19.6,9.2,39,18.7,58.5,28c5.8,2.8,9.1,7.1,10.5,13.6c4.5,20.5,9.3,40.9,14.1,61.3c1.3,5.5,0.1,10.1-3.4,14.4
			c-13.9,17.2-27.8,34.4-41.7,51.7c-2.5,3.1-5.7,4.3-9.6,4.3C124.2,188.1,112.6,188.2,100.9,188.2z M40.2,105.8c0,7.7,0,15.3,0,23
			c0,2.6-0.1,5,3.7,5.1c4,0.1,4.1-2.4,4.1-5.3c0-4,0.1-8,0-12c-0.1-3.3,1.2-5,4.7-4.7c3.7,0.2,7.3-0.6,10.7-1.9
			c7.6-2.8,11.2-9.3,10.4-18.4c-0.6-7.1-5.1-11.7-12.7-13.3c-5.3-1.2-10.5-0.8-15.8-0.3c-4.2,0.4-5.3,2.1-5.1,6
			C40.3,91.1,40.2,98.5,40.2,105.8z M100.5,122.9c-0.4,0-0.8,0-1.3,0c-0.8-3.2-1.6-6.4-2.5-9.6c-2.9-10.6-5.9-21.1-8.8-31.7
			c-1.1-4.1-4.3-4.1-7.2-3.4c-3.6,0.9-1.2,3.6-0.7,5.3c4.5,15.3,9.3,30.6,13.8,45.9c0.9,3,2.2,4.5,5.5,4.5c3.3,0,5.2-1,6.2-4.3
			c4.9-15.7,10-31.4,15.1-47.1c1.1-3.4,0.2-4.5-3.3-4.5c-2.9,0-4.1,1.3-4.9,3.9c-1.7,6.1-3.6,12.1-5.4,18.2
			C104.9,107.7,102.7,115.3,100.5,122.9z M152.4,134.2c2.8-0.2,5.7-0.3,8.4-0.8c1.9-0.3,4-0.8,3.4-3.8c-0.6-3.2-2.4-2.9-4.8-2.4
			c-18.5,3.4-24.6-8.2-25.1-20.2c-0.6-15.8,8.9-25,24-22.8c2.5,0.4,5.1,1.5,5.9-2.3c0.8-4-2.6-3.8-4.7-4.3
			c-16.7-3.4-30.6,5.9-33.1,22.9C123.5,120.8,134.7,135.2,152.4,134.2z"/>
		<path d="M48,94.2c0-0.2,0-0.3,0-0.5c1-3.3-2.6-8.6,3.6-9.7c7.3-1.3,12.6,1.5,14.2,7c1.5,5.3-1,11.3-5.9,13.4
			c-1.9,0.8-4.1,1.3-6.3,1.4c-3.5,0.3-5.8-1.1-5.6-5.1C48.1,98.5,48,96.3,48,94.2C48,94.2,48,94.2,48,94.2z"/>
	</g>
</g>
</svg>
