<?xml version="1.0" encoding="utf-8"?>
<!-- Generator: Adobe Illustrator 27.0.0, SVG Export Plug-In . SVG Version: 6.00 Build 0)  -->
<svg version="1.1" id="图层_1" xmlns="http://www.w3.org/2000/svg" xmlns:xlink="http://www.w3.org/1999/xlink" x="0px" y="0px"
	 viewBox="0 0 200 200" style="enable-background:new 0 0 200 200;" xml:space="preserve">
<g>
	<g>
		<path d="M100.7,188.2c-11.5,0-23-0.1-34.5,0c-3.9,0-7.1-1-9.7-4.2c-14.1-17.6-28.1-35.3-42.3-52.8c-3.4-4.2-3.8-8.6-2.7-13.6
			c4.9-21.2,9.8-42.5,14.6-63.7c1.1-4.7,3.6-8,8.1-10.1c20-9.5,40-19.1,59.9-28.6c4.3-2,8.9-2.3,13.1-0.3
			c19.9,9.4,39.6,18.9,59.4,28.5c5.5,2.6,8.5,7,9.8,13c4.6,20.6,9.4,41.2,14.2,61.8c1.2,5.1,0.3,9.5-3,13.6
			c-14.1,17.5-28.2,35-42.3,52.5c-2.4,3-5.5,4.1-9.2,4.1C124.3,188.1,112.5,188.2,100.7,188.2z M62.5,139.7c2.4,0,3.9,0,5.4,0
			c10.1-0.2,19.2-6.8,21.5-15.6c2.7-9.9-0.7-18.8-9.8-24.5c-4.5-2.8-9.3-5.1-14.1-7.4c-2.6-1.3-4.8-3-6.4-5.4
			c-1.9-2.9-2.9-7.3-0.4-9.2c6.1-4.9,13.1-8.9,21.5-5.7c3.3,1.3,4.6,0.6,5.6-2.8c1-3.4,0.6-5.4-3.1-6.3c-5-1.2-10.1-1.9-15.3-1.4
			c-13.3,1.2-21.8,9.6-21.4,21.3c0.4,11.5,8.3,17.2,17.9,20.9c4.4,1.7,8.4,3.9,11.6,7.4c3.7,4.1,3.5,11.5-0.3,15.4
			c-7.1,7.2-15.2,4.5-23.3,2.5c-1.5-0.4-3.6-3.8-4.9,0.2c-1,3.1-3.7,6.6,1.6,8.5C53.6,139.4,58.5,140,62.5,139.7z M136.1,139.7
			c4.8,0,9.2,0.4,13.6-1.3c4.9-1.8,1.9-5.4,1.8-7.9c-0.1-3-2.8-1.2-4.3-0.7c-7.1,2.2-14,2.3-20.9-0.8c-10.1-4.6-14.2-13.2-15.2-23.4
			c-2-20.9,9.4-39.7,35.4-33.9c4,0.9,4.9-0.7,5.8-3.8c1-3.4-1-4.6-3.6-5.3c-1.7-0.5-3.6-0.7-5.4-0.8c-12.4-0.9-23.8,0.6-33.4,10.1
			c-12.6,12.5-14.1,38.8-4.8,53.5C112.3,136.6,123.4,140.5,136.1,139.7z"/>
	</g>
</g>
</svg>
